<?xml version="1.0" encoding="UTF-8" standalone="no"?>
<svg
   xmlns:dc="http://purl.org/dc/elements/1.1/"
   xmlns:cc="http://creativecommons.org/ns#"
   xmlns:rdf="http://www.w3.org/1999/02/22-rdf-syntax-ns#"
   xmlns:svg="http://www.w3.org/2000/svg"
   xmlns="http://www.w3.org/2000/svg"
   xmlns:sodipodi="http://sodipodi.sourceforge.net/DTD/sodipodi-0.dtd"
   xmlns:inkscape="http://www.inkscape.org/namespaces/inkscape"
   height="1301"
   width="5000"
   id="svg2"
   version="1.1"
   inkscape:version="0.48.4 r9939"
   sodipodi:docname="easyfig">
  <metadata
     id="metadata122">
    <rdf:RDF>
      <cc:Work
         rdf:about="">
        <dc:format>image/svg+xml</dc:format>
        <dc:type
           rdf:resource="http://purl.org/dc/dcmitype/StillImage" />
        <dc:title>Easyfig</dc:title>
      </cc:Work>
    </rdf:RDF>
  </metadata>
  <defs
     id="defs120" />
  <sodipodi:namedview
     pagecolor="#ffffff"
     bordercolor="#666666"
     borderopacity="1"
     objecttolerance="10"
     gridtolerance="10"
     guidetolerance="10"
     inkscape:pageopacity="0"
     inkscape:pageshadow="2"
     inkscape:window-width="640"
     inkscape:window-height="480"
     id="namedview118"
     showgrid="false"
     inkscape:zoom="0.0584"
     inkscape:cx="2500"
     inkscape:cy="75.5"
     inkscape:window-x="55"
     inkscape:window-y="34"
     inkscape:window-maximized="0"
     inkscape:current-layer="svg2" />
  <title
     id="title4">Easyfig</title>
  <g
     style="fill-opacity:1.0; stroke:black; stroke-width:1;"
     id="g6">  <text
    style="font-size:64px;font-style:normal;font-weight:normal;line-height:125%;letter-spacing:0px;word-spacing:0px;fill:#000000;fill-opacity:1;stroke:none;font-family:Sans"
    x="4700"
    y="1280"
    sodipodi:linespacing="125%"><tspan
      sodipodi:role="line"
      x="4700"
      y="1280">100%</tspan></text>
  <text
    style="font-size:64px;font-style:normal;font-weight:normal;line-height:125%;letter-spacing:0px;word-spacing:0px;fill:#000000;fill-opacity:1;stroke:none;font-family:Sans"
    x="4700"
    y="884"
    sodipodi:linespacing="125%"><tspan
      sodipodi:role="line"
      x="4700"
      y="884">100%</tspan></text>
  <defs>
    <linearGradient id="MyGradient" x1="0%" y1="0%" x2="0%" y2="100%">
      <stop offset="0%" stop-color="#111" />
      <stop offset="100%" stop-color="#eee" />
    </linearGradient>
  </defs>
  <rect fill="url(#MyGradient)" stroke-width="0"
        x="4600" y="820" width="40" height="460"/>
  <defs>
    <linearGradient id="MyGradient2" x1="0%" y1="0%" x2="0%" y2="100%">
      <stop offset="0%" stop-color="#111" />
      <stop offset="100%" stop-color="#eee" />
    </linearGradient>
</defs>
  <rect fill="url(#MyGradient2)" stroke-width="0"
        x="4640" y="820" width="40" height="460" />
  <line x1="0" y1="75" x2="5000" y2="75"
        stroke-width="20" stroke="#000" />
  <polygon fill="#4ed" stroke="#000" stroke-width="1"
           points="2550,37 76,37 76,0 1,75 76,149 76,111 2550,111" />
  <polygon fill="#166" stroke="#000" stroke-width="1"
           points="2550,37 76,37 76,0 1,75 76,149 76,111 2550,111" />
  <polygon fill="#4ed" stroke="#000" stroke-width="1"
           points="5000,37 3909,37 3909,0 3834,75 3909,149 3909,111 5000,111" />
  <polygon fill="#166" stroke="#000" stroke-width="1"
           points="5000,37 3909,37 3909,0 3834,75 3909,149 3909,111 5000,111" />
  <polygon fill="#4ed" stroke="#000" stroke-width="1"
           points="3812,37 3222,37 3222,0 3147,75 3222,149 3222,111 3812,111" />
  <polygon fill="#166" stroke="#000" stroke-width="1"
           points="3812,37 3222,37 3222,0 3147,75 3222,149 3222,111 3812,111" />
  <polygon fill="#4ed" stroke="#000" stroke-width="1"
           points="3104,37 2694,37 2694,0 2619,75 2694,149 2694,111 3104,111" />
  <polygon fill="#166" stroke="#000" stroke-width="1"
           points="3104,37 2694,37 2694,0 2619,75 2694,149 2694,111 3104,111" />
  <polygon fill="#eee" stroke="#eee" stroke-width="0"
           points="1,149 5000,149 1,650 5000,650" />
  <line x1="1" y1="149" x2="5000" y2="650"
        stroke-width="1" stroke="#000" />
  <line x1="5000" y1="149" x2="1" y2="650"
        stroke-width="1" stroke="#000" />
  <line x1="0" y1="725" x2="5000" y2="725"
        stroke-width="20" stroke="#000" />
  <polygon fill="#4ed" stroke="#000" stroke-width="1"
           points="2451,687 4925,687 4925,650 5000,725 4925,799 4925,761 2451,761" />
  <polygon fill="#166" stroke="#000" stroke-width="1"
           points="2451,687 4925,687 4925,650 5000,725 4925,799 4925,761 2451,761" />
  <polygon fill="#4ed" stroke="#000" stroke-width="1"
           points="1,687 1092,687 1092,650 1167,725 1092,799 1092,761 1,761" />
  <polygon fill="#166" stroke="#000" stroke-width="1"
           points="1,687 1092,687 1092,650 1167,725 1092,799 1092,761 1,761" />
  <polygon fill="#4ed" stroke="#000" stroke-width="1"
           points="1189,687 1779,687 1779,650 1854,725 1779,799 1779,761 1189,761" />
  <polygon fill="#166" stroke="#000" stroke-width="1"
           points="1189,687 1779,687 1779,650 1854,725 1779,799 1779,761 1189,761" />
  <polygon fill="#4ed" stroke="#000" stroke-width="1"
           points="1896,687 2297,687 2297,650 2372,725 2297,799 2297,761 1896,761" />
  <polygon fill="#166" stroke="#000" stroke-width="1"
           points="1896,687 2297,687 2297,650 2372,725 2297,799 2297,761 1896,761" />
 </g>
</svg>