<?xml version="1.0" encoding="UTF-8" standalone="no"?>
<svg
   xmlns:dc="http://purl.org/dc/elements/1.1/"
   xmlns:cc="http://creativecommons.org/ns#"
   xmlns:rdf="http://www.w3.org/1999/02/22-rdf-syntax-ns#"
   xmlns:svg="http://www.w3.org/2000/svg"
   xmlns="http://www.w3.org/2000/svg"
   xmlns:sodipodi="http://sodipodi.sourceforge.net/DTD/sodipodi-0.dtd"
   xmlns:inkscape="http://www.inkscape.org/namespaces/inkscape"
   height="1301"
   width="5000"
   id="svg2"
   version="1.1"
   inkscape:version="0.48.4 r9939"
   sodipodi:docname="easyfig">
  <metadata
     id="metadata122">
    <rdf:RDF>
      <cc:Work
         rdf:about="">
        <dc:format>image/svg+xml</dc:format>
        <dc:type
           rdf:resource="http://purl.org/dc/dcmitype/StillImage" />
        <dc:title>Easyfig</dc:title>
      </cc:Work>
    </rdf:RDF>
  </metadata>
  <defs
     id="defs120" />
  <sodipodi:namedview
     pagecolor="#ffffff"
     bordercolor="#666666"
     borderopacity="1"
     objecttolerance="10"
     gridtolerance="10"
     guidetolerance="10"
     inkscape:pageopacity="0"
     inkscape:pageshadow="2"
     inkscape:window-width="640"
     inkscape:window-height="480"
     id="namedview118"
     showgrid="false"
     inkscape:zoom="0.0584"
     inkscape:cx="2500"
     inkscape:cy="75.5"
     inkscape:window-x="55"
     inkscape:window-y="34"
     inkscape:window-maximized="0"
     inkscape:current-layer="svg2" />
  <title
     id="title4">Easyfig</title>
  <g
     style="fill-opacity:1.0; stroke:black; stroke-width:1;"
     id="g6">  <text
    style="font-size:64px;font-style:normal;font-weight:normal;line-height:125%;letter-spacing:0px;word-spacing:0px;fill:#000000;fill-opacity:1;stroke:none;font-family:Sans"
    x="4700"
    y="1280"
    sodipodi:linespacing="125%"><tspan
      sodipodi:role="line"
      x="4700"
      y="1280">74%</tspan></text>
  <text
    style="font-size:64px;font-style:normal;font-weight:normal;line-height:125%;letter-spacing:0px;word-spacing:0px;fill:#000000;fill-opacity:1;stroke:none;font-family:Sans"
    x="4700"
    y="884"
    sodipodi:linespacing="125%"><tspan
      sodipodi:role="line"
      x="4700"
      y="884">100%</tspan></text>
  <defs>
    <linearGradient id="MyGradient" x1="0%" y1="0%" x2="0%" y2="100%">
      <stop offset="0%" stop-color="#111" />
      <stop offset="100%" stop-color="#eee" />
    </linearGradient>
  </defs>
  <rect fill="url(#MyGradient)" stroke-width="0"
        x="4600" y="820" width="40" height="460"/>
  <defs>
    <linearGradient id="MyGradient2" x1="0%" y1="0%" x2="0%" y2="100%">
      <stop offset="0%" stop-color="#111" />
      <stop offset="100%" stop-color="#eee" />
    </linearGradient>
</defs>
  <rect fill="url(#MyGradient2)" stroke-width="0"
        x="4640" y="820" width="40" height="460" />
  <line x1="0" y1="75" x2="5000" y2="75"
        stroke-width="20" stroke="#000" />
  <polygon fill="#4ed" stroke="#000" stroke-width="1"
           points="3046,37 3511,37 3511,0 3586,75 3511,149 3511,111 3046,111" />
  <polygon fill="#166" stroke="#000" stroke-width="1"
           points="3046,37 3511,37 3511,0 3586,75 3511,149 3511,111 3046,111" />
  <polygon fill="#4ed" stroke="#000" stroke-width="1"
           points="3874,37 4178,37 4178,0 4253,75 4178,149 4178,111 3874,111" />
  <polygon fill="#166" stroke="#000" stroke-width="1"
           points="3874,37 4178,37 4178,0 4253,75 4178,149 4178,111 3874,111" />
  <polygon fill="#4ed" stroke="#000" stroke-width="1"
           points="314,37 139,37 139,0 64,75 139,149 139,111 314,111" />
  <polygon fill="#166" stroke="#000" stroke-width="1"
           points="314,37 139,37 139,0 64,75 139,149 139,111 314,111" />
  <polygon fill="#4ed" stroke="#000" stroke-width="1"
           points="1472,37 1557,37 1557,0 1632,75 1557,149 1557,111 1472,111" />
  <polygon fill="#166" stroke="#000" stroke-width="1"
           points="1472,37 1557,37 1557,0 1632,75 1557,149 1557,111 1472,111" />
  <polygon fill="#4ed" stroke="#000" stroke-width="1"
           points="1323,37 1397,37 1397,0 1472,75 1397,149 1397,111 1323,111" />
  <polygon fill="#166" stroke="#000" stroke-width="1"
           points="1323,37 1397,37 1397,0 1472,75 1397,149 1397,111 1323,111" />
  <polygon fill="#4ed" stroke="#000" stroke-width="1"
           points="4927,37 4878,37 4878,0 4803,75 4878,149 4878,111 4927,111" />
  <polygon fill="#166" stroke="#000" stroke-width="1"
           points="4927,37 4878,37 4878,0 4803,75 4878,149 4878,111 4927,111" />
  <polygon fill="#4ed" stroke="#000" stroke-width="1"
           points="1632,37 1678,37 1678,0 1753,75 1678,149 1678,111 1632,111" />
  <polygon fill="#166" stroke="#000" stroke-width="1"
           points="1632,37 1678,37 1678,0 1753,75 1678,149 1678,111 1632,111" />
  <polygon fill="#4ed" stroke="#000" stroke-width="1"
           points="2464,37 2507,37 2507,0 2582,75 2507,149 2507,111 2464,111" />
  <polygon fill="#166" stroke="#000" stroke-width="1"
           points="2464,37 2507,37 2507,0 2582,75 2507,149 2507,111 2464,111" />
  <polygon fill="#4ed" stroke="#000" stroke-width="1"
           points="4803,37 4773,37 4773,0 4698,75 4773,149 4773,111 4803,111" />
  <polygon fill="#166" stroke="#000" stroke-width="1"
           points="4803,37 4773,37 4773,0 4698,75 4773,149 4773,111 4803,111" />
  <polygon fill="#4ed" stroke="#000" stroke-width="1"
           points="1984,37 2015,37 2015,0 2090,75 2015,149 2015,111 1984,111" />
  <polygon fill="#166" stroke="#000" stroke-width="1"
           points="1984,37 2015,37 2015,0 2090,75 2015,149 2015,111 1984,111" />
  <polygon fill="#4ed" stroke="#000" stroke-width="1"
           points="2588,37 2614,37 2614,0 2689,75 2614,149 2614,111 2588,111" />
  <polygon fill="#166" stroke="#000" stroke-width="1"
           points="2588,37 2614,37 2614,0 2689,75 2614,149 2614,111 2588,111" />
  <polygon fill="#4ed" stroke="#000" stroke-width="1"
           points="720,37 730,37 730,0 805,75 730,149 730,111 720,111" />
  <polygon fill="#166" stroke="#000" stroke-width="1"
           points="720,37 730,37 730,0 805,75 730,149 730,111 720,111" />
  <polygon fill="#4ed" stroke="#000" stroke-width="1"
           points="1897,37 1906,37 1906,0 1981,75 1906,149 1906,111 1897,111" />
  <polygon fill="#166" stroke="#000" stroke-width="1"
           points="1897,37 1906,37 1906,0 1981,75 1906,149 1906,111 1897,111" />
  <polygon fill="#4ed" stroke="#000" stroke-width="1"
           points="2902,37 2911,37 2911,0 2986,75 2911,149 2911,111 2902,111" />
  <polygon fill="#166" stroke="#000" stroke-width="1"
           points="2902,37 2911,37 2911,0 2986,75 2911,149 2911,111 2902,111" />
  <polygon fill="#4ed" stroke="#000" stroke-width="1"
           points="3603,37 3612,37 3612,0 3687,75 3612,149 3612,111 3603,111" />
  <polygon fill="#166" stroke="#000" stroke-width="1"
           points="3603,37 3612,37 3612,0 3687,75 3612,149 3612,111 3603,111" />
  <polygon fill="#4ed" stroke="#000" stroke-width="1"
           points="436,37 429,37 429,0 354,75 429,149 429,111 436,111" />
  <polygon fill="#166" stroke="#000" stroke-width="1"
           points="436,37 429,37 429,0 354,75 429,149 429,111 436,111" />
  <polygon fill="#4ed" stroke="#000" stroke-width="1"
           points="979,37 985,37 985,0 1060,75 985,149 985,111 979,111" />
  <polygon fill="#166" stroke="#000" stroke-width="1"
           points="979,37 985,37 985,0 1060,75 985,149 985,111 979,111" />
  <polygon fill="#4ed" stroke="#000" stroke-width="1"
           points="4390,0 4390,149 4464,75" />
  <polygon fill="#166" stroke="#000" stroke-width="1"
           points="4390,0 4390,149 4464,75" />
  <polygon fill="#4ed" stroke="#000" stroke-width="1"
           points="2097,0 2097,149 2170,75" />
  <polygon fill="#166" stroke="#000" stroke-width="1"
           points="2097,0 2097,149 2170,75" />
  <polygon fill="#4ed" stroke="#000" stroke-width="1"
           points="4466,0 4466,149 4537,75" />
  <polygon fill="#166" stroke="#000" stroke-width="1"
           points="4466,0 4466,149 4537,75" />
  <polygon fill="#4ed" stroke="#000" stroke-width="1"
           points="1187,0 1187,149 1257,75" />
  <polygon fill="#166" stroke="#000" stroke-width="1"
           points="1187,0 1187,149 1257,75" />
  <polygon fill="#4ed" stroke="#000" stroke-width="1"
           points="652,0 652,149 721,75" />
  <polygon fill="#166" stroke="#000" stroke-width="1"
           points="652,0 652,149 721,75" />
  <polygon fill="#4ed" stroke="#000" stroke-width="1"
           points="2833,0 2833,149 2893,75" />
  <polygon fill="#166" stroke="#000" stroke-width="1"
           points="2833,0 2833,149 2893,75" />
  <polygon fill="#4ed" stroke="#000" stroke-width="1"
           points="4309,0 4309,149 4369,75" />
  <polygon fill="#166" stroke="#000" stroke-width="1"
           points="4309,0 4309,149 4369,75" />
  <polygon fill="#4ed" stroke="#000" stroke-width="1"
           points="2697,0 2697,149 2754,75" />
  <polygon fill="#166" stroke="#000" stroke-width="1"
           points="2697,0 2697,149 2754,75" />
  <polygon fill="#4ed" stroke="#000" stroke-width="1"
           points="3779,0 3779,149 3835,75" />
  <polygon fill="#166" stroke="#000" stroke-width="1"
           points="3779,0 3779,149 3835,75" />
  <polygon fill="#4ed" stroke="#000" stroke-width="1"
           points="812,0 812,149 865,75" />
  <polygon fill="#166" stroke="#000" stroke-width="1"
           points="812,0 812,149 865,75" />
  <polygon fill="#4ed" stroke="#000" stroke-width="1"
           points="1264,0 1264,149 1316,75" />
  <polygon fill="#166" stroke="#000" stroke-width="1"
           points="1264,0 1264,149 1316,75" />
  <polygon fill="#4ed" stroke="#000" stroke-width="1"
           points="1142,0 1142,149 1190,75" />
  <polygon fill="#166" stroke="#000" stroke-width="1"
           points="1142,0 1142,149 1190,75" />
  <polygon fill="#4ed" stroke="#000" stroke-width="1"
           points="2252,0 2252,149 2300,75" />
  <polygon fill="#166" stroke="#000" stroke-width="1"
           points="2252,0 2252,149 2300,75" />
  <polygon fill="#4ed" stroke="#000" stroke-width="1"
           points="1754,0 1754,149 1801,75" />
  <polygon fill="#166" stroke="#000" stroke-width="1"
           points="1754,0 1754,149 1801,75" />
  <polygon fill="#4ed" stroke="#000" stroke-width="1"
           points="2209,0 2209,149 2254,75" />
  <polygon fill="#166" stroke="#000" stroke-width="1"
           points="2209,0 2209,149 2254,75" />
  <polygon fill="#4ed" stroke="#000" stroke-width="1"
           points="2336,0 2336,149 2381,75" />
  <polygon fill="#166" stroke="#000" stroke-width="1"
           points="2336,0 2336,149 2381,75" />
  <polygon fill="#4ed" stroke="#000" stroke-width="1"
           points="3735,0 3735,149 3779,75" />
  <polygon fill="#166" stroke="#000" stroke-width="1"
           points="3735,0 3735,149 3779,75" />
  <polygon fill="#4ed" stroke="#000" stroke-width="1"
           points="4627,75 4670,149 4670,0" />
  <polygon fill="#166" stroke="#000" stroke-width="1"
           points="4627,75 4670,149 4670,0" />
  <polygon fill="#4ed" stroke="#000" stroke-width="1"
           points="2171,0 2171,149 2214,75" />
  <polygon fill="#166" stroke="#000" stroke-width="1"
           points="2171,0 2171,149 2214,75" />
  <polygon fill="#4ed" stroke="#000" stroke-width="1"
           points="4261,0 4261,149 4304,75" />
  <polygon fill="#166" stroke="#000" stroke-width="1"
           points="4261,0 4261,149 4304,75" />
  <polygon fill="#4ed" stroke="#000" stroke-width="1"
           points="3686,0 3686,149 3728,75" />
  <polygon fill="#166" stroke="#000" stroke-width="1"
           points="3686,0 3686,149 3728,75" />
  <polygon fill="#4ed" stroke="#000" stroke-width="1"
           points="2993,0 2993,149 3035,75" />
  <polygon fill="#166" stroke="#000" stroke-width="1"
           points="2993,0 2993,149 3035,75" />
  <polygon fill="#4ed" stroke="#000" stroke-width="1"
           points="3834,0 3834,149 3874,75" />
  <polygon fill="#166" stroke="#000" stroke-width="1"
           points="3834,0 3834,149 3874,75" />
  <polygon fill="#4ed" stroke="#000" stroke-width="1"
           points="468,0 468,149 508,75" />
  <polygon fill="#166" stroke="#000" stroke-width="1"
           points="468,0 468,149 508,75" />
  <polygon fill="#4ed" stroke="#000" stroke-width="1"
           points="576,0 576,149 616,75" />
  <polygon fill="#166" stroke="#000" stroke-width="1"
           points="576,0 576,149 616,75" />
  <polygon fill="#4ed" stroke="#000" stroke-width="1"
           points="2416,0 2416,149 2455,75" />
  <polygon fill="#166" stroke="#000" stroke-width="1"
           points="2416,0 2416,149 2455,75" />
  <polygon fill="#4ed" stroke="#000" stroke-width="1"
           points="4589,75 4628,149 4628,0" />
  <polygon fill="#166" stroke="#000" stroke-width="1"
           points="4589,75 4628,149 4628,0" />
  <polygon fill="#4ed" stroke="#000" stroke-width="1"
           points="2301,0 2301,149 2337,75" />
  <polygon fill="#166" stroke="#000" stroke-width="1"
           points="2301,0 2301,149 2337,75" />
  <polygon fill="#4ed" stroke="#000" stroke-width="1"
           points="4928,75 4963,149 4963,0" />
  <polygon fill="#166" stroke="#000" stroke-width="1"
           points="4928,75 4963,149 4963,0" />
  <polygon fill="#4ed" stroke="#000" stroke-width="1"
           points="944,0 944,149 978,75" />
  <polygon fill="#166" stroke="#000" stroke-width="1"
           points="944,0 944,149 978,75" />
  <polygon fill="#4ed" stroke="#000" stroke-width="1"
           points="4964,75 4997,149 4997,0" />
  <polygon fill="#166" stroke="#000" stroke-width="1"
           points="4964,75 4997,149 4997,0" />
  <polygon fill="#4ed" stroke="#000" stroke-width="1"
           points="544,0 544,149 577,75" />
  <polygon fill="#166" stroke="#000" stroke-width="1"
           points="544,0 544,149 577,75" />
  <polygon fill="#4ed" stroke="#000" stroke-width="1"
           points="1074,0 1074,149 1106,75" />
  <polygon fill="#166" stroke="#000" stroke-width="1"
           points="1074,0 1074,149 1106,75" />
  <polygon fill="#4ed" stroke="#000" stroke-width="1"
           points="514,0 514,149 544,75" />
  <polygon fill="#166" stroke="#000" stroke-width="1"
           points="514,0 514,149 544,75" />
  <polygon fill="#4ed" stroke="#000" stroke-width="1"
           points="4559,75 4588,149 4588,0" />
  <polygon fill="#166" stroke="#000" stroke-width="1"
           points="4559,75 4588,149 4588,0" />
  <polygon fill="#4ed" stroke="#000" stroke-width="1"
           points="907,0 907,149 934,75" />
  <polygon fill="#166" stroke="#000" stroke-width="1"
           points="907,0 907,149 934,75" />
  <polygon fill="#4ed" stroke="#000" stroke-width="1"
           points="1812,0 1812,149 1839,75" />
  <polygon fill="#166" stroke="#000" stroke-width="1"
           points="1812,0 1812,149 1839,75" />
  <polygon fill="#4ed" stroke="#000" stroke-width="1"
           points="329,75 352,149 352,0" />
  <polygon fill="#166" stroke="#000" stroke-width="1"
           points="329,75 352,149 352,0" />
  <polygon fill="#4ed" stroke="#000" stroke-width="1"
           points="2383,0 2383,149 2406,75" />
  <polygon fill="#166" stroke="#000" stroke-width="1"
           points="2383,0 2383,149 2406,75" />
  <polygon fill="#4ed" stroke="#000" stroke-width="1"
           points="1120,0 1120,149 1141,75" />
  <polygon fill="#166" stroke="#000" stroke-width="1"
           points="1120,0 1120,149 1141,75" />
  <polygon fill="#4ed" stroke="#000" stroke-width="1"
           points="1863,0 1863,149 1884,75" />
  <polygon fill="#166" stroke="#000" stroke-width="1"
           points="1863,0 1863,149 1884,75" />
  <polygon fill="#4ed" stroke="#000" stroke-width="1"
           points="447,0 447,149 467,75" />
  <polygon fill="#166" stroke="#000" stroke-width="1"
           points="447,0 447,149 467,75" />
  <polygon fill="#4ed" stroke="#000" stroke-width="1"
           points="4538,0 4538,149 4558,75" />
  <polygon fill="#166" stroke="#000" stroke-width="1"
           points="4538,0 4538,149 4558,75" />
  <polygon fill="#4ed" stroke="#000" stroke-width="1"
           points="4670,75 4687,149 4687,0" />
  <polygon fill="#166" stroke="#000" stroke-width="1"
           points="4670,75 4687,149 4687,0" />
  <polygon fill="#4ed" stroke="#000" stroke-width="1"
           points="2815,0 2815,149 2832,75" />
  <polygon fill="#166" stroke="#000" stroke-width="1"
           points="2815,0 2815,149 2832,75" />
  <polygon fill="#444" stroke="#444" stroke-width="0"
           points="1117,149 2379,149 2910,650 4175,650" />
  <line x1="1117" y1="149" x2="4175" y2="650"
        stroke-width="1" stroke="#000" />
  <line x1="2379" y1="149" x2="2910" y2="650"
        stroke-width="1" stroke="#000" />
  <polygon fill="#666" stroke="#666" stroke-width="0"
           points="3730,149 4309,149 1014,650 1593,650" />
  <line x1="3730" y1="149" x2="1593" y2="650"
        stroke-width="1" stroke="#000" />
  <line x1="4309" y1="149" x2="1014" y2="650"
        stroke-width="1" stroke="#000" />
  <polygon fill="#222" stroke="#222" stroke-width="0"
           points="571,149 818,149 4507,650 4754,650" />
  <line x1="571" y1="149" x2="4754" y2="650"
        stroke-width="1" stroke="#000" />
  <line x1="818" y1="149" x2="4507" y2="650"
        stroke-width="1" stroke="#000" />
  <polygon fill="#777" stroke="#777" stroke-width="0"
           points="2529,149 2779,149 2520,650 2769,650" />
  <line x1="2529" y1="149" x2="2769" y2="650"
        stroke-width="1" stroke="#000" />
  <line x1="2779" y1="149" x2="2520" y2="650"
        stroke-width="1" stroke="#000" />
  <polygon fill="#777" stroke="#777" stroke-width="0"
           points="3043,149 3135,149 2050,650 2142,650" />
  <line x1="3043" y1="149" x2="2142" y2="650"
        stroke-width="1" stroke="#000" />
  <line x1="3135" y1="149" x2="2050" y2="650"
        stroke-width="1" stroke="#000" />
  <polygon fill="#666" stroke="#666" stroke-width="0"
           points="3510,149 3585,149 1659,650 1735,650" />
  <line x1="3510" y1="149" x2="1735" y2="650"
        stroke-width="1" stroke="#000" />
  <line x1="3585" y1="149" x2="1659" y2="650"
        stroke-width="1" stroke="#000" />
  <polygon fill="#ddd" stroke="#ddd" stroke-width="0"
           points="932,149 1042,149 4339,650 4452,650" />
  <line x1="932" y1="149" x2="4452" y2="650"
        stroke-width="1" stroke="#000" />
  <line x1="1042" y1="149" x2="4339" y2="650"
        stroke-width="1" stroke="#000" />
  <polygon fill="#777" stroke="#777" stroke-width="0"
           points="2410,149 2467,149 2849,650 2905,650" />
  <line x1="2410" y1="149" x2="2905" y2="650"
        stroke-width="1" stroke="#000" />
  <line x1="2467" y1="149" x2="2849" y2="650"
        stroke-width="1" stroke="#000" />
  <polygon fill="#444" stroke="#444" stroke-width="0"
           points="1112,149 1118,149 4219,650 4226,650" />
  <line x1="1112" y1="149" x2="4226" y2="650"
        stroke-width="1" stroke="#000" />
  <line x1="1118" y1="149" x2="4219" y2="650"
        stroke-width="1" stroke="#000" />
  <polygon fill="#888" stroke="#888" stroke-width="0"
           points="3424,149 3431,149 1818,650 1825,650" />
  <line x1="3424" y1="149" x2="1825" y2="650"
        stroke-width="1" stroke="#000" />
  <line x1="3431" y1="149" x2="1818" y2="650"
        stroke-width="1" stroke="#000" />
  <polygon fill="#555" stroke="#555" stroke-width="0"
           points="2894,149 2899,149 2427,650 2433,650" />
  <line x1="2894" y1="149" x2="2433" y2="650"
        stroke-width="1" stroke="#000" />
  <line x1="2899" y1="149" x2="2427" y2="650"
        stroke-width="1" stroke="#000" />
  <polygon fill="#eee" stroke="#eee" stroke-width="0"
           points="1062,149 1071,149 4310,650 4319,650" />
  <line x1="1062" y1="149" x2="4319" y2="650"
        stroke-width="1" stroke="#000" />
  <line x1="1071" y1="149" x2="4310" y2="650"
        stroke-width="1" stroke="#000" />
  <polygon fill="#333" stroke="#333" stroke-width="0"
           points="641,149 644,149 4655,650 4652,650" />
  <line x1="641" y1="149" x2="4652" y2="650"
        stroke-width="1" stroke="#000" />
  <line x1="644" y1="149" x2="4655" y2="650"
        stroke-width="1" stroke="#000" />
  <polygon fill="#333" stroke="#333" stroke-width="0"
           points="670,149 673,149 4684,650 4681,650" />
  <line x1="670" y1="149" x2="4681" y2="650"
        stroke-width="1" stroke="#000" />
  <line x1="673" y1="149" x2="4684" y2="650"
        stroke-width="1" stroke="#000" />
  <polygon fill="#555" stroke="#555" stroke-width="0"
           points="4305,149 4308,149 1588,650 1591,650" />
  <line x1="4305" y1="149" x2="1591" y2="650"
        stroke-width="1" stroke="#000" />
  <line x1="4308" y1="149" x2="1588" y2="650"
        stroke-width="1" stroke="#000" />
  <line x1="245" y1="725" x2="4754" y2="725"
        stroke-width="20" stroke="#000" />
  <polygon fill="#4ed" stroke="#000" stroke-width="1"
           points="2139,687 1734,687 1734,650 1659,725 1734,799 1734,761 2139,761" />
  <polygon fill="#166" stroke="#000" stroke-width="1"
           points="2139,687 1734,687 1734,650 1659,725 1734,799 1734,761 2139,761" />
  <polygon fill="#4ed" stroke="#000" stroke-width="1"
           points="1449,687 1145,687 1145,650 1070,725 1145,799 1145,761 1449,761" />
  <polygon fill="#166" stroke="#000" stroke-width="1"
           points="1449,687 1145,687 1145,650 1070,725 1145,799 1145,761 1449,761" />
  <polygon fill="#4ed" stroke="#000" stroke-width="1"
           points="3817,687 3732,687 3732,650 3657,725 3732,799 3732,761 3817,761" />
  <polygon fill="#166" stroke="#000" stroke-width="1"
           points="3817,687 3732,687 3732,650 3657,725 3732,799 3732,761 3817,761" />
  <polygon fill="#4ed" stroke="#000" stroke-width="1"
           points="3974,687 3892,687 3892,650 3817,725 3892,799 3892,761 3974,761" />
  <polygon fill="#166" stroke="#000" stroke-width="1"
           points="3974,687 3892,687 3892,650 3817,725 3892,799 3892,761 3974,761" />
  <polygon fill="#4ed" stroke="#000" stroke-width="1"
           points="2860,687 2792,687 2792,650 2717,725 2792,799 2792,761 2860,761" />
  <polygon fill="#166" stroke="#000" stroke-width="1"
           points="2860,687 2792,687 2792,650 2717,725 2792,799 2792,761 2860,761" />
  <polygon fill="#4ed" stroke="#000" stroke-width="1"
           points="467,687 536,687 536,650 611,725 536,799 536,761 467,761" />
  <polygon fill="#166" stroke="#000" stroke-width="1"
           points="467,687 536,687 536,650 611,725 536,799 536,761 467,761" />
  <polygon fill="#4ed" stroke="#000" stroke-width="1"
           points="845,687 792,687 792,650 717,725 792,799 792,761 845,761" />
  <polygon fill="#166" stroke="#000" stroke-width="1"
           points="845,687 792,687 792,650 717,725 792,799 792,761 845,761" />
  <polygon fill="#4ed" stroke="#000" stroke-width="1"
           points="3657,687 3610,687 3610,650 3535,725 3610,799 3610,761 3657,761" />
  <polygon fill="#166" stroke="#000" stroke-width="1"
           points="3657,687 3610,687 3610,650 3535,725 3610,799 3610,761 3657,761" />
  <polygon fill="#4ed" stroke="#000" stroke-width="1"
           points="2256,687 2222,687 2222,650 2147,725 2222,799 2222,761 2256,761" />
  <polygon fill="#166" stroke="#000" stroke-width="1"
           points="2256,687 2222,687 2222,650 2147,725 2222,799 2222,761 2256,761" />
  <polygon fill="#4ed" stroke="#000" stroke-width="1"
           points="3304,687 3274,687 3274,650 3199,725 3274,799 3274,761 3304,761" />
  <polygon fill="#166" stroke="#000" stroke-width="1"
           points="3304,687 3274,687 3274,650 3199,725 3274,799 3274,761 3304,761" />
  <polygon fill="#4ed" stroke="#000" stroke-width="1"
           points="2711,687 2685,687 2685,650 2610,725 2685,799 2685,761 2711,761" />
  <polygon fill="#166" stroke="#000" stroke-width="1"
           points="2711,687 2685,687 2685,650 2610,725 2685,799 2685,761 2711,761" />
  <polygon fill="#4ed" stroke="#000" stroke-width="1"
           points="4703,687 4679,687 4679,650 4604,725 4679,799 4679,761 4703,761" />
  <polygon fill="#166" stroke="#000" stroke-width="1"
           points="4703,687 4679,687 4679,650 4604,725 4679,799 4679,761 4703,761" />
  <polygon fill="#4ed" stroke="#000" stroke-width="1"
           points="4605,687 4595,687 4595,650 4520,725 4595,799 4595,761 4605,761" />
  <polygon fill="#166" stroke="#000" stroke-width="1"
           points="4605,687 4595,687 4595,650 4520,725 4595,799 4595,761 4605,761" />
  <polygon fill="#4ed" stroke="#000" stroke-width="1"
           points="3392,687 3382,687 3382,650 3307,725 3382,799 3382,761 3392,761" />
  <polygon fill="#166" stroke="#000" stroke-width="1"
           points="3392,687 3382,687 3382,650 3307,725 3382,799 3382,761 3392,761" />
  <polygon fill="#4ed" stroke="#000" stroke-width="1"
           points="4404,687 4396,687 4396,650 4321,725 4396,799 4396,761 4404,761" />
  <polygon fill="#166" stroke="#000" stroke-width="1"
           points="4404,687 4396,687 4396,650 4321,725 4396,799 4396,761 4404,761" />
  <polygon fill="#4ed" stroke="#000" stroke-width="1"
           points="619,687 626,687 626,650 701,725 626,799 626,761 619,761" />
  <polygon fill="#166" stroke="#000" stroke-width="1"
           points="619,687 626,687 626,650 701,725 626,799 626,761 619,761" />
  <polygon fill="#4ed" stroke="#000" stroke-width="1"
           points="2423,687 2423,687 2423,650 2348,725 2423,799 2423,761 2423,761" />
  <polygon fill="#166" stroke="#000" stroke-width="1"
           points="2423,687 2423,687 2423,650 2348,725 2423,799 2423,761 2423,761" />
  <polygon fill="#4ed" stroke="#000" stroke-width="1"
           points="3118,725 3191,799 3191,650" />
  <polygon fill="#166" stroke="#000" stroke-width="1"
           points="3118,725 3191,799 3191,650" />
  <polygon fill="#4ed" stroke="#000" stroke-width="1"
           points="4031,725 4102,799 4102,650" />
  <polygon fill="#166" stroke="#000" stroke-width="1"
           points="4031,725 4102,799 4102,650" />
  <polygon fill="#4ed" stroke="#000" stroke-width="1"
           points="951,725 1014,799 1014,650" />
  <polygon fill="#166" stroke="#000" stroke-width="1"
           points="951,725 1014,799 1014,650" />
  <polygon fill="#4ed" stroke="#000" stroke-width="1"
           points="2545,725 2602,799 2602,650" />
  <polygon fill="#166" stroke="#000" stroke-width="1"
           points="2545,725 2602,799 2602,650" />
  <polygon fill="#4ed" stroke="#000" stroke-width="1"
           points="311,725 367,799 367,650" />
  <polygon fill="#166" stroke="#000" stroke-width="1"
           points="311,725 367,799 367,650" />
  <polygon fill="#4ed" stroke="#000" stroke-width="1"
           points="1488,725 1544,799 1544,650" />
  <polygon fill="#166" stroke="#000" stroke-width="1"
           points="1488,725 1544,799 1544,650" />
  <polygon fill="#4ed" stroke="#000" stroke-width="1"
           points="413,650 413,799 467,725" />
  <polygon fill="#166" stroke="#000" stroke-width="1"
           points="413,650 413,799 467,725" />
  <polygon fill="#4ed" stroke="#000" stroke-width="1"
           points="3973,725 4025,799 4025,650" />
  <polygon fill="#166" stroke="#000" stroke-width="1"
           points="3973,725 4025,799 4025,650" />
  <polygon fill="#4ed" stroke="#000" stroke-width="1"
           points="4098,725 4150,799 4150,650" />
  <polygon fill="#166" stroke="#000" stroke-width="1"
           points="4098,725 4150,799 4150,650" />
  <polygon fill="#4ed" stroke="#000" stroke-width="1"
           points="893,650 893,799 939,725" />
  <polygon fill="#166" stroke="#000" stroke-width="1"
           points="893,650 893,799 939,725" />
  <polygon fill="#4ed" stroke="#000" stroke-width="1"
           points="2434,725 2479,799 2479,650" />
  <polygon fill="#166" stroke="#000" stroke-width="1"
           points="2434,725 2479,799 2479,650" />
  <polygon fill="#4ed" stroke="#000" stroke-width="1"
           points="2988,725 3033,799 3033,650" />
  <polygon fill="#166" stroke="#000" stroke-width="1"
           points="2988,725 3033,799 3033,650" />
  <polygon fill="#4ed" stroke="#000" stroke-width="1"
           points="4405,725 4450,799 4450,650" />
  <polygon fill="#166" stroke="#000" stroke-width="1"
           points="4405,725 4450,799 4450,650" />
  <polygon fill="#4ed" stroke="#000" stroke-width="1"
           points="1544,725 1588,799 1588,650" />
  <polygon fill="#166" stroke="#000" stroke-width="1"
           points="1544,725 1588,799 1588,650" />
  <polygon fill="#4ed" stroke="#000" stroke-width="1"
           points="2907,725 2951,799 2951,650" />
  <polygon fill="#166" stroke="#000" stroke-width="1"
           points="2907,725 2951,799 2951,650" />
  <polygon fill="#4ed" stroke="#000" stroke-width="1"
           points="3487,725 3530,799 3530,650" />
  <polygon fill="#166" stroke="#000" stroke-width="1"
           points="3487,725 3530,799 3530,650" />
  <polygon fill="#4ed" stroke="#000" stroke-width="1"
           points="1019,725 1062,799 1062,650" />
  <polygon fill="#166" stroke="#000" stroke-width="1"
           points="1019,725 1062,799 1062,650" />
  <polygon fill="#4ed" stroke="#000" stroke-width="1"
           points="3075,725 3118,799 3118,650" />
  <polygon fill="#166" stroke="#000" stroke-width="1"
           points="3075,725 3118,799 3118,650" />
  <polygon fill="#4ed" stroke="#000" stroke-width="1"
           points="2951,725 2991,799 2991,650" />
  <polygon fill="#166" stroke="#000" stroke-width="1"
           points="2951,725 2991,799 2991,650" />
  <polygon fill="#4ed" stroke="#000" stroke-width="1"
           points="3034,725 3074,799 3074,650" />
  <polygon fill="#166" stroke="#000" stroke-width="1"
           points="3034,725 3074,799 3074,650" />
  <polygon fill="#4ed" stroke="#000" stroke-width="1"
           points="1449,725 1489,799 1489,650" />
  <polygon fill="#166" stroke="#000" stroke-width="1"
           points="1449,725 1489,799 1489,650" />
  <polygon fill="#4ed" stroke="#000" stroke-width="1"
           points="4709,725 4749,799 4749,650" />
  <polygon fill="#166" stroke="#000" stroke-width="1"
           points="4709,725 4749,799 4749,650" />
  <polygon fill="#4ed" stroke="#000" stroke-width="1"
           points="2860,725 2899,799 2899,650" />
  <polygon fill="#166" stroke="#000" stroke-width="1"
           points="2860,725 2899,799 2899,650" />
  <polygon fill="#4ed" stroke="#000" stroke-width="1"
           points="4450,725 4485,799 4485,650" />
  <polygon fill="#166" stroke="#000" stroke-width="1"
           points="4450,725 4485,799 4485,650" />
  <polygon fill="#4ed" stroke="#000" stroke-width="1"
           points="245,650 245,799 277,725" />
  <polygon fill="#166" stroke="#000" stroke-width="1"
           points="245,650 245,799 277,725" />
  <polygon fill="#4ed" stroke="#000" stroke-width="1"
           points="280,725 310,799 310,650" />
  <polygon fill="#166" stroke="#000" stroke-width="1"
           points="280,725 310,799 310,650" />
  <polygon fill="#4ed" stroke="#000" stroke-width="1"
           points="2319,725 2348,799 2348,650" />
  <polygon fill="#166" stroke="#000" stroke-width="1"
           points="2319,725 2348,799 2348,650" />
  <polygon fill="#4ed" stroke="#000" stroke-width="1"
           points="4178,725 4205,799 4205,650" />
  <polygon fill="#166" stroke="#000" stroke-width="1"
           points="4178,725 4205,799 4205,650" />
  <polygon fill="#4ed" stroke="#000" stroke-width="1"
           points="3449,725 3476,799 3476,650" />
  <polygon fill="#166" stroke="#000" stroke-width="1"
           points="3449,725 3476,799 3476,650" />
  <polygon fill="#4ed" stroke="#000" stroke-width="1"
           points="2286,650 2286,799 2313,725" />
  <polygon fill="#166" stroke="#000" stroke-width="1"
           points="2286,650 2286,799 2313,725" />
  <polygon fill="#4ed" stroke="#000" stroke-width="1"
           points="4243,725 4267,799 4267,650" />
  <polygon fill="#166" stroke="#000" stroke-width="1"
           points="4243,725 4267,799 4267,650" />
  <polygon fill="#4ed" stroke="#000" stroke-width="1"
           points="4484,725 4507,799 4507,650" />
  <polygon fill="#166" stroke="#000" stroke-width="1"
           points="4484,725 4507,799 4507,650" />
  <polygon fill="#4ed" stroke="#000" stroke-width="1"
           points="3404,725 3425,799 3425,650" />
  <polygon fill="#166" stroke="#000" stroke-width="1"
           points="3404,725 3425,799 3425,650" />
  <polygon fill="#4ed" stroke="#000" stroke-width="1"
           points="4151,725 4172,799 4172,650" />
  <polygon fill="#166" stroke="#000" stroke-width="1"
           points="4151,725 4172,799 4172,650" />
  <polygon fill="#4ed" stroke="#000" stroke-width="1"
           points="2489,725 2509,799 2509,650" />
  <polygon fill="#166" stroke="#000" stroke-width="1"
           points="2489,725 2509,799 2509,650" />
  <polygon fill="#4ed" stroke="#000" stroke-width="1"
           points="1595,725 1613,799 1613,650" />
  <polygon fill="#166" stroke="#000" stroke-width="1"
           points="1595,725 1613,799 1613,650" />
  <polygon fill="#4ed" stroke="#000" stroke-width="1"
           points="2256,725 2273,799 2273,650" />
  <polygon fill="#166" stroke="#000" stroke-width="1"
           points="2256,725 2273,799 2273,650" />
  <polygon fill="#4ed" stroke="#000" stroke-width="1"
           points="4506,725 4520,799 4520,650" />
  <polygon fill="#166" stroke="#000" stroke-width="1"
           points="4506,725 4520,799 4520,650" />
 </g>
</svg>